<svg xmlns="http://www.w3.org/2000/svg" xml:space="preserve" width="800" height="800" viewBox="0 0 512 512" fill="#EFD81D">
  <path d="M218.2 257.5c0 64.7 4.6 119.1-27.3 151.3-18 18.1-46.3 28.8-81.2 28.8-57.2 0-89-27.9-109.2-66.4C20 358.7 40 346.7 60.3 335c8.3 23.2 36.3 49.3 67.9 33.2 20-10.2 17.7-41 17.7-74.5V81.2c0-1-.1-2.1.7-2.3h71.6v178.6zm181.5-42c-18.2-7.9-40.9-17.1-46.5-34a32 32 0 0 1 16.3-39.8c26-11.7 57 7.5 63.4 27.3a596.2 596.2 0 0 0 56.9-37c-20.9-34.5-51.4-59.3-107-57.5-30.7 1-53.7 10.7-70.9 25.1a86.1 86.1 0 0 0-31.7 62c-6 84.2 57 105.7 110.7 129.1 16.9 7.4 35.7 14.9 43.5 29.5 16 30.3-12.4 50.3-36.9 52.4-39.3 3.5-65.8-19.5-81.2-43.5-19 11.9-39.9 22-58.3 34.7 25.6 44.9 67.5 74 132.9 73.8 66.7-.2 116.2-32.4 120.3-93 5.5-82.4-56.2-105.5-111.5-129.1z"/>
</svg>
